<svg width="182" height="182" viewBox="0 0 182 182" fill="none" xmlns="http://www.w3.org/2000/svg">
<path d="M45.4995 45.5C42.4827 45.5 39.5894 46.6984 37.4562 48.8317C35.3229 50.9649 34.1245 53.8582 34.1245 56.875V84.6528C34.1245 87.6696 35.3229 90.5629 37.4562 92.6961C39.5894 94.8293 42.4827 96.0277 45.4995 96.0277L61.288 96.0277C61.288 100.02 61.0491 104.024 60.5827 108.017C59.8775 112.248 58.6945 116.014 57.0565 119.301C55.4071 122.6 53.2914 125.182 50.6979 127.07C48.1157 129.186 44.8284 130.244 40.8244 130.244V147.875C47.4105 147.875 53.1662 146.465 58.1144 143.644C63.0194 140.851 67.2366 136.995 70.4562 132.36C73.6876 127.249 76.0693 121.648 77.5087 115.775C78.9592 109.294 79.669 102.669 79.6245 96.0277L79.6245 56.875C79.6245 53.8582 78.4261 50.9649 76.2928 48.8317C74.1596 46.6984 71.2663 45.5 68.2495 45.5H45.4995ZM113.749 45.5C110.733 45.5 107.839 46.6984 105.706 48.8317C103.573 50.9649 102.374 53.8582 102.374 56.875L102.374 84.6528C102.374 87.6696 103.573 90.5629 105.706 92.6961C107.839 94.8293 110.733 96.0277 113.749 96.0277H129.538C129.538 100.02 129.299 104.024 128.833 108.017C128.127 112.248 126.944 116.014 125.306 119.301C123.657 122.6 121.541 125.182 118.948 127.07C116.366 129.186 113.078 130.244 109.074 130.244V147.875C115.66 147.875 121.416 146.465 126.364 143.644C131.269 140.851 135.487 136.995 138.706 132.36C141.938 127.249 144.319 121.648 145.759 115.775C147.209 109.294 147.919 102.669 147.874 96.0277V56.875C147.874 53.8582 146.676 50.9649 144.543 48.8317C142.41 46.6984 139.516 45.5 136.499 45.5H113.749Z" fill="#363636"/>
</svg>
