<svg width="95" height="95" viewBox="0 0 95 95" fill="none" xmlns="http://www.w3.org/2000/svg">
<path d="M81.9663 1.59131H12.3409C6.40406 1.59131 1.59131 6.40406 1.59131 12.3409V81.959C1.59131 87.8958 6.40406 92.7085 12.3409 92.7085H81.9663C87.9032 92.7085 92.7159 87.8958 92.7159 81.959V12.3409C92.7159 6.40406 87.9032 1.59131 81.9663 1.59131Z" fill="url(#paint0_linear_243_1376)"/>
<path d="M38.776 44.4127C38.776 44.4127 46.5122 43.838 46.5122 34.7683C46.5122 25.6985 40.1833 21.2705 32.1672 21.2705H5.79053V71.9608H32.1672C32.1672 71.9608 48.2657 72.4692 48.2657 56.9968C48.2657 56.9968 48.973 44.4127 38.776 44.4127ZM17.4095 30.2813H32.145C32.145 30.2813 35.7332 30.2813 35.7332 35.5566C35.7332 40.8319 33.626 41.5982 31.2314 41.5982H17.4169L17.4095 30.2813ZM31.4819 62.95H17.4169V49.408H32.1524C32.1524 49.408 37.4941 49.3344 37.4941 56.3706C37.5088 62.228 33.6039 62.8911 31.4893 62.95H31.4819ZM69.7428 34.1715C50.2477 34.1715 50.2698 53.6445 50.2698 53.6445C50.2698 53.6445 48.9288 73.0217 69.7428 73.0217C69.7428 73.0217 87.0865 74.009 87.0865 59.5461H78.1715C78.1715 59.5461 78.4662 64.9982 70.067 64.9982C70.067 64.9982 61.1446 65.595 61.1446 56.1569H87.4107C87.4107 56.1569 90.262 34.1715 69.7428 34.1715ZM77.6705 49.408H61.0193C61.0193 49.408 62.1098 41.5982 69.9417 41.5982C77.7737 41.5982 77.6705 49.408 77.6705 49.408ZM58.8385 24.2618H79.7482V30.5023H58.8385V24.2618Z" fill="#FFFCFC"/>
<defs>
<linearGradient id="paint0_linear_243_1376" x1="47.1536" y1="1.59131" x2="47.1536" y2="92.7159" gradientUnits="userSpaceOnUse">
<stop stop-color="#005CFF"/>
<stop offset="1" stop-color="#0047AD"/>
</linearGradient>
</defs>
</svg>
