<svg width="95" height="95" viewBox="0 0 95 95" fill="none" xmlns="http://www.w3.org/2000/svg">
<mask id="mask0_243_1366" style="mask-type:luminance" maskUnits="userSpaceOnUse" x="3" y="3" width="88" height="88">
<path d="M86.449 47.1537C86.4556 52.3294 85.4365 57.4552 83.4506 62.2348C81.4646 67.0143 78.5512 71.353 74.8786 75C71.2361 78.6361 66.9128 81.5187 62.1557 83.4831C57.3986 85.4475 52.3009 86.4552 47.1542 86.4485C25.4517 86.4485 7.85941 68.8562 7.85941 47.1537C7.84567 37.0781 11.7159 27.3848 18.6655 20.0894C22.3324 16.2201 26.7502 13.1396 31.6487 11.0367C36.5472 8.93367 41.8234 7.85237 47.1542 7.85892C52.3009 7.85225 57.3986 8.85992 62.1557 10.8243C66.9128 12.7887 71.2361 15.6714 74.8786 19.3075C78.5512 22.9545 81.4646 27.2931 83.4506 32.0727C85.4365 36.8522 86.4556 41.978 86.449 47.1537Z" fill="white" stroke="white" stroke-width="7.85896" stroke-linecap="round" stroke-linejoin="round"/>
<path d="M86.4478 47.154C80.7146 47.154 64.8985 44.9928 50.7425 51.2072C35.3645 57.96 24.2303 68.436 19.3774 74.9491" stroke="black" stroke-width="7.85896" stroke-linecap="round" stroke-linejoin="round"/>
<path d="M32.418 10.7158C38.5676 16.392 51.9868 30.8426 56.9772 45.1891C61.9676 59.5357 63.8145 77.1751 64.9541 82.195" stroke="black" stroke-width="7.85896" stroke-linecap="round" stroke-linejoin="round"/>
<path d="M8.16113 42.2418C15.5839 42.6898 35.2333 43.0925 47.8076 37.7229C60.3819 32.3533 71.2018 22.4765 74.9132 19.3428" stroke="black" stroke-width="7.85896" stroke-linecap="round" stroke-linejoin="round"/>
<path d="M10.8065 62.1113C14.269 70.4926 20.5137 77.425 28.4892 81.741M7.85941 47.1537C7.84567 37.0781 11.7159 27.3848 18.6655 20.0894C22.3324 16.2201 26.7502 13.1396 31.6487 11.0367C36.5472 8.93367 41.8234 7.85237 47.1542 7.85892M62.8721 11.1282C67.3471 13.0862 71.4185 15.8598 74.8786 19.3075C78.5512 22.9545 81.4646 27.2931 83.4506 32.0727C85.4365 36.8522 86.4556 41.978 86.449 47.1537C86.449 51.9909 85.5747 56.6257 83.9734 60.9069M47.1542 86.4485C52.3009 86.4552 57.3986 85.4475 62.1557 83.4831C66.9128 81.5187 71.2361 78.6361 74.8786 75" stroke="white" stroke-width="7.85896" stroke-linecap="round" stroke-linejoin="round"/>
</mask>
<g mask="url(#mask0_243_1366)">
<path d="M0 0H94.3075V94.3075H0V0Z" fill="#ED4989"/>
</g>
</svg>
