<svg width="100" height="100" viewBox="0 0 100 100" fill="none" xmlns="http://www.w3.org/2000/svg">
<rect width="100" height="100" rx="50" fill="black"/>
<path d="M43.2857 73.8571C42.7619 73.619 42.381 73.2381 42.1429 72.7143C41.9048 72.1905 41.7857 71.5476 41.7857 70.7857C41.7857 69.2619 42.1429 67.4048 42.8571 65.2143C43.619 62.9762 44.381 60.8333 45.1429 58.7857C45.7619 57.2143 46.4286 55.3571 47.1429 53.2143C47.9048 51.0238 48.6667 48.7381 49.4286 46.3571C50.2381 43.9286 51 41.5952 51.7143 39.3571C52.4286 37.119 53.0238 35.1429 53.5 33.4286C54.0238 31.6667 54.381 30.3809 54.5714 29.5714C50.8571 31.0476 47.5238 32.8095 44.5714 34.8571C41.619 36.8571 38.8571 39.119 36.2857 41.6429C33.7619 44.119 31.2143 46.8333 28.6429 49.7857H38.7143C38.9048 49.7857 39.3333 49.8095 40 49.8571C40.6667 49.8571 41.381 49.9048 42.1429 50C42.9048 50.0476 43.5476 50.1429 44.0714 50.2857C44.6429 50.381 44.9286 50.5476 44.9286 50.7857C44.9286 51.1667 44.4524 51.5 43.5 51.7857C42.5952 52.0238 41.4048 52.2381 39.9286 52.4286C38.5 52.5714 37 52.6905 35.4286 52.7857C33.8571 52.8333 32.4048 52.881 31.0714 52.9286C29.7381 52.9762 28.7381 53 28.0714 53C27.1667 53 26.1667 53.5 25.0714 54.5C23.9762 55.5 22.881 56.8095 21.7857 58.4286C20.7381 60.0476 19.7381 61.7857 18.7857 63.6429C17.881 65.4524 17.0714 67.1905 16.3571 68.8571C15.6905 70.5238 15.2143 71.9286 14.9286 73.0714C14.9286 73.1667 14.9048 73.2857 14.8571 73.4286C14.8095 73.5714 14.7143 73.6429 14.5714 73.6429C14.2857 73.6429 14 73.381 13.7143 72.8571C13.381 72.381 13.2143 72.0238 13.2143 71.7857C13.2143 70.5 13.5238 69 14.1429 67.2857C14.7619 65.5714 15.5238 63.8333 16.4286 62.0714C17.381 60.2619 18.3571 58.5714 19.3571 57C20.4048 55.4286 21.3333 54.1429 22.1429 53.1429C20.9524 53.1429 19.7381 53.1667 18.5 53.2143C17.2619 53.2143 16.0238 53.2143 14.7857 53.2143C14.5 53.2143 14.2143 53.119 13.9286 52.9286C13.5952 52.6905 13.381 52.4286 13.2857 52.1429C13.4762 51.619 14.0476 51.2619 15 51.0714C15.9524 50.8333 17.0476 50.6905 18.2857 50.6429C19.5714 50.5476 20.7857 50.4762 21.9286 50.4286C23.0714 50.381 23.9048 50.2857 24.4286 50.1429C25.2857 49.0952 26.4524 47.8095 27.9286 46.2857C29.4048 44.7619 31.0952 43.1429 33 41.4286C34.9048 39.7143 36.9048 38.0238 39 36.3571C41.0952 34.6905 43.1667 33.1667 45.2143 31.7857C47.2619 30.4048 49.1905 29.3095 51 28.5C52.8095 27.6429 54.3571 27.2143 55.6429 27.2143C56.0238 27.2143 56.5476 27.2857 57.2143 27.4286C57.881 27.5238 58.5 27.7143 59.0714 28C59.6429 28.2857 59.9286 28.6905 59.9286 29.2143C59.9286 29.8333 59.5952 31.0476 58.9286 32.8571C58.3095 34.6667 57.4762 36.8333 56.4286 39.3571C55.381 41.8333 54.2619 44.4524 53.0714 47.2143C51.881 49.9286 50.7381 52.5238 49.6429 55C48.5476 57.4762 47.619 59.5714 46.8571 61.2857C45.7619 63.9524 44.9524 66.0952 44.4286 67.7143C43.9524 69.3333 43.7143 70.619 43.7143 71.5714C43.7143 72.2857 43.8571 72.9048 44.1429 73.4286C44.1905 73.4762 44.0952 73.5714 43.8571 73.7143C43.619 73.8571 43.4286 73.9048 43.2857 73.8571ZM64.9821 69.7857C64.2679 69.7857 63.4345 69.5476 62.4821 69.0714C61.5298 68.5952 61.0536 67.9524 61.0536 67.1429C61.0536 66.4286 61.3155 65.5238 61.8393 64.4286C62.3631 63.3333 63.006 62.1667 63.7679 60.9286C64.5298 59.6905 65.3155 58.5 66.125 57.3571C66.9345 56.1667 67.625 55.1667 68.1964 54.3571C68.8155 53.5 69.1964 52.9286 69.3393 52.6429C70.006 51.7381 70.4107 51.1667 70.5536 50.9286C70.6964 50.6905 70.7917 50.5 70.8393 50.3571C70.4583 50.6429 69.8631 51.0952 69.0536 51.7143C68.244 52.2857 67.4345 52.881 66.625 53.5C65.8155 54.119 65.2202 54.5952 64.8393 54.9286C62.1726 57.2619 59.9345 59.5 58.125 61.6429C56.3631 63.7381 54.7202 65.9762 53.1964 68.3571C53.1488 68.4048 53.0298 68.4524 52.8393 68.5C52.6488 68.5 52.506 68.5 52.4107 68.5C52.125 68.5 51.6964 68.4286 51.125 68.2857C50.6012 68.1429 50.3869 67.8333 50.4821 67.3571C50.7679 66.6429 51.1488 65.881 51.625 65.0714C52.1012 64.2619 52.7679 63.1667 53.625 61.7857C54.4821 60.3571 55.6012 58.3571 56.9821 55.7857C57.4107 54.9762 58.125 53.6429 59.125 51.7857C60.1726 49.9286 61.4345 47.8095 62.9107 45.4286C64.4345 43.0476 66.125 40.6905 67.9821 38.3571C69.8869 35.9762 71.9345 33.8571 74.125 32C76.3155 30.1429 78.6012 28.8095 80.9821 28C81.6012 27.7619 82.1488 27.6429 82.625 27.6429C83.5298 27.6429 84.1488 27.9524 84.4821 28.5714C84.8631 29.1429 85.3631 29.619 85.9821 30C86.3631 30.2381 86.5536 30.619 86.5536 31.1429C86.5536 31.9048 85.9107 32.9524 84.625 34.2857C83.3869 35.5714 81.7917 37 79.8393 38.5714C77.8869 40.0952 75.8393 41.619 73.6964 43.1429C71.5536 44.6667 69.5298 46.0714 67.625 47.3571C65.7679 48.6429 64.3393 49.6429 63.3393 50.3571C63.1488 50.7381 62.7679 51.3571 62.1964 52.2143C61.6726 53.0238 61.1012 53.9048 60.4821 54.8571C59.8631 55.8095 59.2917 56.6905 58.7679 57.5C58.244 58.3095 57.9107 58.881 57.7679 59.2143C59.1012 57.9762 60.506 56.6667 61.9821 55.2857C63.506 53.9048 64.9821 52.5714 66.4107 51.2857C67.8869 50 69.1726 48.9048 70.2679 48C70.506 47.8095 70.7917 47.6905 71.125 47.6429C71.506 47.5952 71.8155 47.5714 72.0536 47.5714C72.7202 47.5714 73.506 47.8571 74.4107 48.4286C75.3155 49 75.7679 49.6905 75.7679 50.5C75.7679 51.0238 75.4821 51.5476 74.9107 52.0714C73.4821 53.3571 72.0298 54.8571 70.5536 56.5714C69.0774 58.2381 67.744 60 66.5536 61.8571C66.2202 62.4286 65.744 63.2619 65.125 64.3571C64.5536 65.4524 64.2679 66.3333 64.2679 67C64.2679 67.4762 64.4107 67.7143 64.6964 67.7143C65.2679 67.7143 66.0536 67.4048 67.0536 66.7857C68.1012 66.1667 69.2202 65.381 70.4107 64.4286C71.6488 63.4286 72.8631 62.4048 74.0536 61.3571C75.2917 60.3095 76.3869 59.3333 77.3393 58.4286C78.2917 57.5238 78.9821 56.8333 79.4107 56.3571C79.6964 56.0714 79.9345 55.9286 80.125 55.9286C80.4107 55.9286 80.5536 56.0714 80.5536 56.3571C80.5536 56.5 80.4583 56.7143 80.2679 57C79.6488 57.8095 78.744 58.8333 77.5536 60.0714C76.3631 61.2619 75.0536 62.5 73.625 63.7857C72.1964 65.0238 70.8155 66.1667 69.4821 67.2143C68.1964 68.2143 67.125 68.9762 66.2679 69.5C65.9345 69.6905 65.506 69.7857 64.9821 69.7857ZM64.8393 47.5714C65.2202 47.2857 65.8631 46.8333 66.7679 46.2143C67.7202 45.5476 68.7679 44.8095 69.9107 44C71.1012 43.1429 72.2679 42.3095 73.4107 41.5C74.5536 40.6429 75.506 39.8809 76.2679 39.2143C77.7917 37.8809 79.0536 36.7857 80.0536 35.9286C81.1012 35.0714 82.006 34.0714 82.7679 32.9286C82.9583 32.6905 83.0774 32.4762 83.125 32.2857C83.1726 32.0952 83.1964 31.9286 83.1964 31.7857C83.1964 31.5 83.0536 31.2857 82.7679 31.1429C82.5298 31 82.2202 30.9286 81.8393 30.9286C81.125 30.9286 80.1964 31.3095 79.0536 32.0714C77.9107 32.8333 76.6726 33.8571 75.3393 35.1429C74.006 36.3809 72.6726 37.7381 71.3393 39.2143C70.006 40.6905 68.7679 42.1667 67.625 43.6429C66.4821 45.0714 65.5536 46.381 64.8393 47.5714Z" fill="url(#paint0_linear_325_154)"/>
<defs>
<linearGradient id="paint0_linear_325_154" x1="6.03978" y1="28.6833" x2="112.269" y2="38.7944" gradientUnits="userSpaceOnUse">
<stop stop-color="white"/>
<stop offset="1" stop-color="#666666"/>
</linearGradient>
</defs>
</svg>
