<svg width="132" height="132" viewBox="0 0 132 132" fill="none" xmlns="http://www.w3.org/2000/svg">
<g clip-path="url(#clip0_238_1316)">
<path d="M46.785 132.643C59.021 132.643 68.8922 122.772 68.8922 110.536V88.4287H46.785C34.5489 88.4287 24.6777 98.2998 24.6777 110.536C24.6777 122.772 34.5489 132.643 46.785 132.643Z" fill="#0ACF83"/>
<path d="M24.6777 66.3221C24.6777 54.086 34.5489 44.2148 46.785 44.2148H68.8922V88.4293H46.785C34.5489 88.4293 24.6777 78.5582 24.6777 66.3221Z" fill="#A259FF"/>
<path d="M24.6777 22.1072C24.6777 9.87113 34.5489 0 46.785 0H68.8922V44.2144H46.785C34.5489 44.2144 24.6777 34.3433 24.6777 22.1072Z" fill="#F24E1E"/>
<path d="M68.8926 0H90.9998C103.236 0 113.107 9.87113 113.107 22.1072C113.107 34.3433 103.236 44.2144 90.9998 44.2144H68.8926V0Z" fill="#FF7262"/>
<path d="M113.107 66.3221C113.107 78.5582 103.236 88.4293 90.9998 88.4293C78.7637 88.4293 68.8926 78.5582 68.8926 66.3221C68.8926 54.086 78.7637 44.2148 90.9998 44.2148C103.236 44.2148 113.107 54.086 113.107 66.3221Z" fill="#1ABCFE"/>
</g>
<defs>
<clipPath id="clip0_238_1316">
<rect width="131.615" height="131.615" fill="white"/>
</clipPath>
</defs>
</svg>
