<svg width="132" height="132" viewBox="0 0 132 132" fill="none" xmlns="http://www.w3.org/2000/svg">
<g clip-path="url(#clip0_238_1322)">
<path d="M0.230469 47.3281H25.5458V59.7976H12.7339L0.230469 47.3281ZM0.230469 59.7976H12.7339L25.5458 72.5561H12.7339V85.3166L0.230469 72.555V59.7976ZM41.6502 75.8228V56.9823H53.3001V60.7467H46.0233V65.6874H53.3012V69.4508H46.0233V75.8228H41.6502ZM55.915 75.8228V62.7744H60.2706V65.6884C60.2706 64.8196 60.8516 63.9322 61.4325 63.3533C62.3034 62.7744 62.9029 62.4844 63.7728 62.4844C64.3538 62.4844 64.6437 62.7744 64.9347 62.7744V66.5563H63.7728C62.6109 66.5563 61.7225 66.8462 61.1415 67.7151C60.5606 68.294 60.2706 69.4518 60.2706 70.8996V75.8228H55.915ZM71.9206 76.4027C69.8713 76.4027 68.4184 75.5328 67.2575 74.375C66.3866 73.2162 65.8046 71.4795 65.8046 69.4518C65.8046 68.004 66.0956 66.8462 66.3866 65.9774C66.9214 64.9172 67.7212 64.0133 68.7084 63.3533C69.5803 62.7744 70.7412 62.4844 71.9206 62.4844C72.7925 62.4844 73.6635 62.7744 74.5344 63.0633C75.1143 63.3533 75.6963 63.9322 75.9863 64.8196V62.7734H80.3419V75.8218H75.9863V74.0851C75.6963 74.665 75.1143 75.2439 74.5344 75.8228C73.6635 76.1128 72.7925 76.4027 71.9206 76.4027ZM73.0825 72.9273C74.2444 72.9273 74.8244 72.6373 75.4063 71.7684C75.9863 71.1895 76.2762 70.3207 76.2762 69.4518C76.2762 68.294 75.9863 67.7141 75.4053 66.8462C74.8244 66.2673 74.2434 65.9774 73.0815 65.9774C72.2116 65.9774 71.3222 66.2673 70.7412 66.8462C70.1613 67.7151 69.8703 68.294 69.8703 69.4518C69.8703 70.3207 70.1613 71.1895 70.7412 71.7684C71.3222 72.6373 72.2116 72.9262 73.0825 72.9262V72.9273ZM83.5531 75.8228V62.7744H87.6178V64.8196C87.9087 63.9322 88.4887 63.6422 89.0707 63.0644C89.9591 62.7744 90.541 62.4844 91.4109 62.4844C93.4438 62.4844 94.8967 63.3533 95.4766 64.8185C96.0565 64.2222 96.6385 63.6433 97.2185 63.0644C98.0894 62.7744 98.9788 62.4844 99.8508 62.4844C103.043 62.4844 104.495 64.2222 104.495 67.7151V75.8228H100.431V68.584C100.431 67.7151 100.141 67.1352 99.8497 66.5563C99.5587 66.2684 98.9788 65.9774 98.3804 65.9774C97.5091 65.9774 96.9282 66.267 96.6375 66.8462C96.3475 67.1352 96.0565 68.0051 96.0565 69.1629V75.8228H91.9919V68.584C91.9919 67.7151 91.7019 67.1352 91.4109 66.5563C91.121 66.2684 90.54 65.9774 89.9591 65.9774C89.3606 65.9774 88.7786 66.2673 88.1997 66.8462C87.9087 67.1352 87.6178 68.0051 87.6178 69.1629V75.8228H83.5531ZM120.503 68.584V70.6096H110.903C110.903 71.4795 111.193 72.0594 111.774 72.6373C112.064 72.9262 112.935 73.2162 113.806 73.2162C115.258 73.2162 115.839 72.9262 116.419 72.0584H120.503C120.212 73.2162 119.631 74.375 118.18 75.2439C117.018 75.8228 115.549 76.4017 113.806 76.4017C111.483 76.4017 109.741 75.8228 108.58 74.375C107.929 73.7308 107.413 72.964 107.061 72.1189C106.709 71.2738 106.528 70.3672 106.529 69.4518C106.529 67.1362 107.4 65.6884 108.58 64.2222C109.741 63.0637 111.484 62.4844 113.806 62.4844C115.839 62.4844 117.309 63.0633 118.761 64.2222C119.922 65.3985 120.503 66.8462 120.503 68.584ZM110.903 68.004H116.419C116.419 67.1362 116.13 66.5563 115.839 65.9784C115.258 65.3985 114.678 65.3985 113.806 65.3985C112.935 65.3985 112.064 65.6884 111.483 65.9774C111.193 66.5563 110.903 67.1362 110.903 68.004ZM122.827 75.8228V62.7744H126.909V65.6884C127.217 64.8137 127.713 64.0168 128.361 63.3533C128.942 62.7744 129.814 62.4844 130.684 62.4844C130.975 62.4844 131.555 62.7744 131.846 62.7744V66.5563H130.394C129.523 66.5563 128.651 66.8462 128.071 67.7151C127.199 68.294 126.909 69.4518 126.909 70.8996V75.8228H122.827Z" fill="white"/>
</g>
<defs>
<clipPath id="clip0_238_1322">
<rect width="131.615" height="131.615" fill="white" transform="translate(0.230469)"/>
</clipPath>
</defs>
</svg>
