<svg width="132" height="132" viewBox="0 0 132 132" fill="none" xmlns="http://www.w3.org/2000/svg">
<path d="M8.37598 8.22607H123.539V123.389H8.37598V8.22607Z" fill="#F5DE19"/>
<path d="M85.7373 98.1967C86.7185 100.19 88.243 101.865 90.135 103.029C92.0271 104.194 94.2096 104.8 96.4311 104.778C100.914 104.778 103.781 102.536 103.781 99.4306C103.781 95.729 100.836 94.4046 95.9005 92.2453L93.1941 91.0854C85.3795 87.758 80.1972 83.5916 80.1972 74.7816C80.1972 66.6667 86.3666 60.4849 96.0444 60.4849C99.1773 60.2587 102.307 60.9598 105.044 62.5009C107.781 64.042 110.004 66.3549 111.435 69.1509L102.975 74.5595C102.424 73.1731 101.464 71.987 100.224 71.1584C98.9829 70.3298 97.5197 69.898 96.028 69.9201C95.3772 69.8549 94.7199 69.9261 94.0981 70.1289C93.4762 70.3318 92.9035 70.662 92.4163 71.0985C91.9292 71.535 91.5383 72.0681 91.2686 72.664C90.9988 73.2599 90.8562 73.9054 90.8497 74.5595C90.8497 77.8046 92.861 79.1208 97.5045 81.1403L100.211 82.3001C109.407 86.2445 114.606 90.2628 114.606 99.299C114.606 109.043 106.952 114.381 96.6737 114.381C92.6689 114.636 88.6759 113.727 85.1764 111.763C81.6769 109.799 78.8206 106.865 76.952 103.313L85.7373 98.1967ZM47.5073 99.1345C49.2059 102.149 50.7524 104.699 54.4705 104.699C58.0241 104.699 60.2698 103.309 60.2698 97.9006V61.1019H71.091V98.0446C71.091 109.248 64.5103 114.348 54.9312 114.348C51.5452 114.533 48.1824 113.69 45.285 111.928C42.3875 110.166 40.091 107.569 38.6973 104.477L47.5073 99.1345Z" fill="black"/>
</svg>
