<svg width="133" height="132" viewBox="0 0 133 132" fill="none" xmlns="http://www.w3.org/2000/svg">
<path fill-rule="evenodd" clip-rule="evenodd" d="M90.6445 102.967C90.8183 102.633 90.9849 102.338 91.1268 102.032C91.2162 101.837 91.354 101.798 91.5484 101.803C92.7134 101.836 93.8784 101.872 95.0444 101.883C96.0346 101.894 97.0268 101.875 98.0181 101.864C99.1347 101.85 100.251 101.792 101.367 101.824C102.853 101.867 104.301 102.158 105.645 102.819C107.25 103.61 108.464 104.814 109.292 106.4C109.812 107.406 110.137 108.502 110.249 109.629C110.426 111.283 110.31 112.898 109.785 114.479C109.135 116.439 107.902 117.939 106.187 119.063C104.868 119.928 103.421 120.439 101.871 120.731C100.23 121.041 98.5836 120.941 96.9374 120.946C95.1318 120.953 93.3272 120.914 91.5216 120.894C91.2059 120.89 91.1607 120.831 91.244 120.53L91.3211 120.252C91.4969 119.699 91.5915 119.674 92.153 119.581C92.5511 119.52 92.9319 119.375 93.2707 119.157C93.4599 119.031 93.538 118.704 93.612 118.452C93.6758 118.232 93.6789 117.991 93.6809 117.758C93.7066 114.237 93.7334 110.716 93.7478 107.196C93.7518 106.306 93.7295 105.416 93.6809 104.527C93.646 103.905 93.3138 103.479 92.5735 103.332C91.9977 103.218 91.4178 103.13 90.8389 103.028L90.6445 102.967ZM107.175 111.494C107.096 110.793 107.058 110.086 106.933 109.395C106.633 107.736 105.907 106.291 104.632 105.159C102.57 103.33 100.088 103.048 97.4865 103.266C96.8942 103.316 96.7667 103.518 96.7574 104.127C96.743 104.991 96.7286 105.854 96.7276 106.718C96.7235 109.457 96.7235 112.197 96.7276 114.936C96.7276 115.716 96.7382 116.495 96.7595 117.272C96.7842 118.068 97.0731 118.741 97.8525 119.05C99.0813 119.536 100.374 119.594 101.663 119.395C103.723 119.08 105.163 117.88 106.13 116.081C106.895 114.654 107.111 113.096 107.175 111.494ZM112.181 120.822C112.156 120.395 112.331 120.042 112.547 119.718C112.606 119.631 112.807 119.635 112.946 119.607L114.124 119.374C114.541 119.285 114.76 119.006 114.819 118.597C114.858 118.328 114.895 118.056 114.898 117.783C114.926 115.627 114.946 113.471 114.958 111.314C114.969 109.155 114.96 106.996 114.96 104.836L114.951 104.424C114.909 103.73 114.574 103.37 113.885 103.268L112.391 103.041C112.207 103.016 112.14 102.928 112.207 102.765C112.322 102.486 112.432 102.197 112.594 101.946C112.655 101.854 112.86 101.818 112.998 101.821C113.711 101.831 114.425 101.884 115.138 101.883L121.35 101.846C122.547 101.845 123.703 102.054 124.776 102.627C125.957 103.256 126.619 104.23 126.808 105.556C127.005 106.95 126.583 108.124 125.565 109.056C125.146 109.441 124.604 109.692 124.119 110.004L123.961 110.103C124.411 110.269 124.84 110.412 125.257 110.582C126.479 111.083 127.45 111.866 127.965 113.115C128.371 114.101 128.371 115.129 128.13 116.151C127.756 117.751 126.702 118.815 125.331 119.621C124.045 120.376 122.653 120.816 121.17 120.89C119.802 120.959 118.429 120.934 117.058 120.949L116.264 120.953C114.943 120.923 113.622 120.89 112.301 120.854L112.181 120.822ZM117.874 114.561H117.888C117.888 115.237 117.879 115.914 117.891 116.59C117.899 117.028 117.884 117.479 117.978 117.9C118.12 118.531 118.408 119.099 119.116 119.28C120.061 119.528 121.049 119.571 122.013 119.408C123.223 119.197 124.189 118.59 124.718 117.438C125.111 116.581 125.17 115.673 125.035 114.746C124.856 113.524 124.207 112.638 123.129 112.057C122.421 111.675 121.667 111.442 120.863 111.411C119.962 111.377 119.06 111.375 118.159 111.347C117.906 111.34 117.871 111.469 117.872 111.676C117.878 112.637 117.874 113.598 117.874 114.561ZM119.792 109.959C120.285 109.935 120.842 109.927 121.396 109.872C122.457 109.766 123.205 109.232 123.595 108.217C123.793 107.702 123.785 107.172 123.79 106.636C123.805 105.241 122.991 104.097 121.666 103.624C120.642 103.259 119.588 103.253 118.526 103.282C118.097 103.293 117.904 103.481 117.898 103.914L117.834 109.558C117.831 109.782 117.928 109.879 118.146 109.886L119.792 109.959Z" fill="#FFFFFF"/>
<path fill-rule="evenodd" clip-rule="evenodd" d="M11.7623 119.736L11.6872 120.707C10.988 120.707 10.3433 120.702 9.69861 120.709C8.48425 120.721 7.2699 120.741 6.05452 120.759L5.9373 120.766C5.76352 120.745 5.44785 120.745 5.43963 120.694C5.38822 120.405 5.40467 120.101 5.41803 119.802C5.41906 119.768 5.53731 119.725 5.6062 119.709L6.55116 119.498C7.14034 119.345 7.34805 119.091 7.37581 118.482C7.40768 117.796 7.43956 117.109 7.44264 116.423C7.4519 114.735 7.44162 113.049 7.44881 111.36C7.44984 110.966 7.31309 110.671 6.94497 110.511C6.50754 110.317 6.06706 110.13 5.62368 109.95C5.41392 109.865 5.14144 109.819 5.16611 109.537C5.19079 109.25 5.45505 109.175 5.70389 109.119C6.73419 108.883 7.76551 108.654 8.79273 108.403C9.12382 108.322 9.44052 108.185 9.83639 108.047C9.85696 108.261 9.895 108.465 9.89089 108.668L9.83022 109.636C9.8292 109.745 9.88575 109.891 9.96698 109.952C10.0163 109.99 10.1819 109.921 10.2641 109.857C11.1423 109.189 12.0718 108.612 13.1319 108.276C14.774 107.754 16.1837 108.238 17.1709 109.653C17.5184 110.152 17.5194 110.152 18.0017 109.804C18.8294 109.202 19.6952 108.672 20.6638 108.322C22.7902 107.554 24.8333 108.529 25.5726 110.67C25.842 111.448 25.9448 112.251 25.9428 113.071L25.9233 118.519C25.9222 118.968 26.0713 119.224 26.4991 119.364C26.9793 119.522 27.4769 119.629 28.0178 119.771L27.8923 120.708C27.2775 120.708 26.7119 120.704 26.1464 120.709C24.7644 120.721 23.3825 120.729 22.0015 120.761C21.7609 120.767 21.6982 120.707 21.6859 120.482C21.6458 119.761 21.6396 119.762 22.3182 119.6L22.5465 119.541C23.2097 119.36 23.4308 119.157 23.4359 118.484C23.4514 116.553 23.4915 114.617 23.3938 112.69C23.292 110.691 21.7054 109.627 19.7682 110.139C19.143 110.31 18.5542 110.594 18.0305 110.976C17.8505 111.104 17.8166 111.252 17.831 111.478C17.8865 112.329 17.9184 113.181 17.9266 114.034C17.9389 115.526 17.9204 117.018 17.9266 118.511C17.9287 119.115 18.1353 119.347 18.7328 119.487L19.6201 119.691L19.7846 119.728C19.797 120.012 19.8083 120.296 19.7949 120.58C19.7867 120.757 19.6489 120.773 19.4947 120.77C18.632 120.748 17.7683 120.719 16.9056 120.721C15.8557 120.724 14.8069 120.753 13.7581 120.772H13.5113C13.5113 120.471 13.4969 120.183 13.5216 119.896C13.5268 119.827 13.6481 119.73 13.7314 119.709L14.7658 119.49C15.2049 119.382 15.4146 119.156 15.4393 118.71C15.5565 116.643 15.6408 114.576 15.4465 112.51C15.399 112.102 15.2858 111.704 15.1113 111.333C14.5817 110.162 13.39 109.674 12.0152 110.026C11.3623 110.192 10.7731 110.491 10.2158 110.869C10.0946 110.944 9.9951 111.049 9.92696 111.175C9.85882 111.3 9.82442 111.441 9.82714 111.583C9.82851 113.645 9.83297 115.707 9.84051 117.767L9.85182 118.562C9.86416 119.116 10.0996 119.408 10.6497 119.528C11.0035 119.608 11.3613 119.662 11.7623 119.736Z" fill="#FFFFFF"/>
<path fill-rule="evenodd" clip-rule="evenodd" d="M73.928 108.259C74.0873 109.034 74.0842 109.731 73.5146 110.26C72.9491 110.785 72.2334 110.608 71.5352 110.491C71.6 110.859 71.672 111.172 71.707 111.488C71.9609 113.842 70.9481 115.589 68.7651 116.587C67.9405 116.964 67.0655 117.104 66.1719 117.176C65.7277 117.211 65.339 117.55 65.2969 117.915C65.2537 118.285 65.4861 118.665 65.9508 118.777C66.4989 118.907 67.0706 118.944 67.633 119.009C68.8402 119.147 70.0607 119.209 71.2535 119.425C73.057 119.75 74.0637 121.325 73.746 123.136C73.4632 124.749 72.5295 125.922 71.2278 126.822C69.0345 128.341 66.6285 128.785 64.0661 128.01C62.6008 127.566 61.5674 126.602 61.2106 125.044C61.0317 124.263 61.222 123.557 61.8091 123.027C62.5073 122.4 63.2671 121.841 63.9982 121.248L64.2347 121.011L63.9633 120.821C63.2178 120.467 62.6214 119.983 62.39 119.142C62.3109 118.857 62.3931 118.67 62.6348 118.524C63.0461 118.276 63.455 118.024 63.8615 117.768C64.0527 117.649 64.2419 117.525 64.4198 117.387C64.6625 117.202 64.6409 117.065 64.3509 116.958C63.6764 116.709 63.0769 116.348 62.6121 115.793C61.8358 114.866 61.6158 113.763 61.6795 112.598C61.7793 110.778 62.7674 109.579 64.3735 108.808C66.283 107.892 68.1986 107.834 70.145 108.669C70.8648 108.977 71.6237 109.043 72.3959 108.99C72.9727 108.949 73.4766 108.731 73.928 108.259ZM66.8917 121.298C65.4583 121.285 65.009 121.462 64.1679 122.319C63.226 123.279 63.2311 124.611 64.171 125.575C64.8846 126.306 65.775 126.649 66.7652 126.752C67.922 126.871 69.0613 126.823 70.1121 126.244C71.2329 125.624 71.7902 124.472 71.5383 123.312C71.3296 122.355 70.6242 121.917 69.7656 121.665C68.7888 121.379 67.7791 121.325 66.8917 121.298ZM64.0764 112.138C64.1288 112.536 64.1504 112.939 64.2388 113.329C64.4681 114.339 64.9072 115.226 65.9118 115.675C67.0912 116.205 68.5975 115.978 69.1137 114.322C69.4666 113.221 69.4255 112.03 68.9975 110.956C68.8169 110.464 68.4905 110.039 68.0618 109.738C67.0377 109.024 65.1899 108.929 64.4373 110.508C64.1925 111.022 64.0969 111.568 64.0764 112.138Z" fill="#FFFFFF"/>
<path fill-rule="evenodd" clip-rule="evenodd" d="M49.6089 108.005C49.6469 108.181 49.723 108.38 49.7251 108.58C49.7282 108.962 49.687 109.343 49.6654 109.725V110.056L49.9883 109.809C50.8726 109.081 51.8227 108.461 52.9291 108.127C54.9259 107.526 56.9207 108.619 57.5716 110.652C57.8184 111.426 57.9161 112.22 57.9253 113.029C57.9459 114.824 57.9582 116.619 57.9767 118.415C57.9829 119.059 58.0569 119.174 58.6667 119.361C59.0136 119.464 59.3676 119.543 59.7258 119.596C59.9222 119.627 60.0065 119.704 59.9962 119.896L59.9982 120.073C59.991 120.817 59.9396 120.851 59.2188 120.848C57.4934 120.845 55.7691 120.856 54.0437 120.87C53.5296 120.874 53.5285 120.89 53.4771 120.382L53.4668 120.09C53.4987 119.652 53.509 119.656 53.9398 119.592C54.2298 119.549 54.5177 119.482 54.8005 119.408C55.0915 119.333 55.2313 119.118 55.2704 118.83C55.2899 118.684 55.3156 118.538 55.3146 118.392C55.2899 116.43 55.3218 114.466 55.2149 112.507C55.1285 110.923 53.9193 109.979 52.3286 110.087C51.5619 110.14 50.8248 110.405 50.1991 110.851C49.7744 111.148 49.6891 111.577 49.6911 112.038C49.7007 113.873 49.7158 115.708 49.7364 117.543C49.7405 117.945 49.7518 118.347 49.7899 118.746C49.83 119.182 49.9832 119.358 50.4109 119.452C50.8202 119.543 51.2376 119.595 51.6746 119.668L51.7116 120.005C51.726 120.792 51.6438 120.851 50.8798 120.847C49.0958 120.84 47.3118 120.852 45.5288 120.871C45.2481 120.875 45.1288 120.787 45.136 120.513L45.1319 120.396C45.0856 119.688 45.1062 119.661 45.7766 119.546L46.0933 119.482C46.8193 119.318 47.0054 119.125 47.0157 118.388C47.0496 116.053 47.0619 113.719 47.0856 111.383C47.0887 111.048 46.9622 110.788 46.6496 110.649C46.2109 110.457 45.7698 110.271 45.3262 110.09C45.0815 109.989 44.8018 109.925 44.7926 109.587C44.7864 109.349 45.0414 109.138 45.39 109.067C46.0902 108.925 46.7966 108.807 47.4886 108.633C48.1776 108.461 48.8541 108.231 49.6089 108.005Z" fill="#FFFFFF"/>
<path fill-rule="evenodd" clip-rule="evenodd" d="M88.1829 114.104C88.15 116.285 87.5834 118.049 86.0411 119.372C84.0874 121.051 81.0397 121.622 78.5483 120.366C77.4851 119.83 76.7036 119.009 76.1946 117.943C75.4142 116.303 75.2188 114.578 75.626 112.812C76.0291 111.065 77.0871 109.799 78.6706 108.979C80.2994 108.137 82.0145 107.808 83.8231 108.25C86.111 108.809 87.7551 110.674 88.0821 113.049C88.1407 113.466 88.1634 113.887 88.1829 114.104ZM85.5331 115.286L85.4447 115.275C85.4447 115.07 85.456 114.864 85.4426 114.658C85.3676 113.377 85.0797 112.157 84.3373 111.084C83.6329 110.068 82.6736 109.469 81.4253 109.381C80.0279 109.283 78.8536 110.064 78.4413 111.491C77.8223 113.634 78.0321 115.723 79.12 117.686C79.594 118.541 80.2963 119.172 81.2371 119.505C83.0808 120.153 84.7157 119.313 85.1959 117.425C85.3727 116.728 85.4241 115.999 85.5331 115.286Z" fill="#FFFFFF"/>
<path fill-rule="evenodd" clip-rule="evenodd" d="M42.8924 114.273C42.8544 115.838 42.4853 117.285 41.5187 118.542C40.4833 119.889 39.0602 120.609 37.4417 120.912C35.5282 121.27 33.7308 120.945 32.1936 119.661C31.4635 119.05 30.9648 118.268 30.6358 117.377C30.096 115.917 29.9613 114.421 30.2934 112.896C30.6481 111.264 31.5694 110.017 32.9977 109.18C34.649 108.215 36.431 107.784 38.3342 108.218C40.7815 108.777 42.1943 110.372 42.7166 112.786C42.8215 113.274 42.8359 113.777 42.8924 114.273ZM40.2128 115.305L40.1419 115.295V115.001C40.1018 113.566 39.8211 112.198 38.9646 111.005C38.3301 110.12 37.4808 109.565 36.3919 109.409C34.6171 109.157 33.4573 110.209 33.0727 111.64C32.5709 113.508 32.7283 115.354 33.5046 117.125C33.9889 118.23 34.7539 119.09 35.9292 119.508C37.7615 120.159 39.4211 119.297 39.8848 117.416C40.0555 116.729 40.1069 116.011 40.2128 115.305Z" fill="#FFFFFF"/>
<path fill-rule="evenodd" clip-rule="evenodd" d="M85.6098 34.4912C86.8715 38.1384 87.7784 41.8617 88.0776 45.7196C88.4478 50.5071 88.2792 55.2617 87.2694 59.97L87.1399 60.3464C86.8232 60.3474 86.5003 60.3073 86.1908 60.3556C83.576 60.7669 80.9642 61.1926 78.3515 61.6163C75.6503 62.0543 72.947 62.4748 70.251 62.9417C69.2957 63.1062 68.1133 62.9098 67.7277 64.2301L67.5426 64.2928L67.6732 56.3979L67.5405 37.3487L68.7991 37.1328C70.8566 36.7965 72.9141 36.4541 74.9747 36.1261C77.4322 35.7364 79.8918 35.356 82.3513 34.9755C83.4372 34.8089 84.524 34.6537 85.6098 34.4912Z" fill="#439934"/>
<path fill-rule="evenodd" clip-rule="evenodd" d="M64.9444 87.309C63.6169 86.1676 62.2432 85.0766 60.9713 83.8757C54.1252 77.4183 49.1167 69.8165 46.6499 60.6518C45.9702 58.1305 45.5178 55.5671 45.3718 52.9615C45.269 51.1374 45.1219 49.2979 45.2515 47.4831C45.5939 42.6575 46.2921 37.8782 47.7069 33.2295L47.7851 33.1216C47.9229 33.3046 48.1203 33.4671 48.1902 33.6737C49.5715 37.7415 50.9439 41.813 52.3073 45.8882C56.594 58.6909 60.8757 71.4966 65.1696 84.2972C65.2539 84.5471 65.4709 84.7517 65.6272 84.9769L64.9444 87.309Z" fill="#45A538"/>
<path fill-rule="evenodd" clip-rule="evenodd" d="M85.6091 34.4908C84.5223 34.6522 83.4354 34.8085 82.3506 34.9751C79.8911 35.3556 77.4315 35.736 74.974 36.1257C72.9144 36.4527 70.8569 36.7951 68.7984 37.1324L67.5398 37.3483L67.5295 36.5278C67.4874 35.8532 67.4175 35.1787 67.4082 34.5042L67.2673 21.5956C67.2344 18.9026 67.1851 16.2097 67.1306 13.5177C67.1029 11.8446 67.0545 10.1719 66.9856 8.49991C66.9445 7.60225 66.7995 6.70871 66.7419 5.81105C66.708 5.29487 66.7532 4.77458 66.7645 4.25635C67.4061 5.49949 68.0344 6.75189 68.6935 7.98579C69.7351 9.93636 71.3957 11.3738 72.8918 12.9419C78.8001 19.1432 82.9943 26.3492 85.6091 34.4908Z" fill="#46A037"/>
<path fill-rule="evenodd" clip-rule="evenodd" d="M67.5436 64.2931L67.7286 64.2303C68.1142 62.9101 69.2967 63.1065 70.252 62.942C72.948 62.4751 75.6513 62.0546 78.3525 61.6166C80.9652 61.1939 83.577 60.7683 86.1918 60.3559C86.5013 60.3076 86.8241 60.3477 87.1408 60.3467C86.6524 62.0906 86.2679 63.8725 85.6478 65.5681C84.9435 67.4909 84.0921 69.3685 83.1883 71.209C81.8343 73.9537 80.1592 76.528 78.1982 78.8777C76.6908 80.6894 75.0107 82.3665 73.3274 84.0209C72.3958 84.935 71.2997 85.6805 70.2777 86.5031L70.0124 86.3221L69.0592 85.5078L68.0731 83.3444C67.3998 80.8214 67.0322 78.2267 66.978 75.6161L66.9965 75.176L67.1312 73.2696C67.1755 72.6188 67.2351 71.9689 67.2629 71.318C67.3616 68.9777 67.45 66.6354 67.5436 64.2931Z" fill="#409433"/>
<path fill-rule="evenodd" clip-rule="evenodd" d="M67.5435 64.2926C67.451 66.635 67.3626 68.9783 67.2628 71.3207C67.2351 71.9726 67.1764 72.6224 67.1312 73.2723L66.5307 73.4995C65.196 69.5706 63.8604 65.6828 62.5545 61.7858C60.3942 55.3377 58.2605 48.8803 56.1033 42.4301C54.3613 37.2245 52.6071 32.0229 50.8407 26.8255C50.7575 26.5829 50.521 26.3916 50.3564 26.1767L54.2021 19.1055C54.3347 19.3348 54.5085 19.5497 54.5918 19.7964C56.3706 25.0611 58.1464 30.3267 59.9068 35.5975C62.1977 42.4558 64.4732 49.3173 66.7621 56.1767C66.8536 56.4502 67.0037 56.7032 67.1477 57.0106L67.6741 56.3978L67.5435 64.2926Z" fill="#4FAA41"/>
<path fill-rule="evenodd" clip-rule="evenodd" d="M50.3553 26.1768C50.5208 26.3917 50.7573 26.5829 50.8396 26.8256C52.6061 32.023 54.3603 37.2245 56.1021 42.4302C58.2594 48.8804 60.393 55.3377 62.5533 61.7858C63.8592 65.6829 65.1949 69.5696 66.5295 73.4996L67.13 73.2723L66.9953 75.1787L66.873 75.6178C66.6642 77.7041 66.4884 79.7945 66.2334 81.8767C66.1059 82.9203 65.8334 83.9445 65.6267 84.9768C65.4715 84.7516 65.2535 84.547 65.1692 84.2972C60.8742 71.4966 56.5936 58.6908 52.3069 45.8882C50.943 41.8138 49.5706 37.7423 48.1898 33.6737C48.1199 33.467 47.9225 33.3045 47.7847 33.1215L50.3553 26.1768Z" fill="#4AA73C"/>
<path fill-rule="evenodd" clip-rule="evenodd" d="M67.6727 56.3982L67.1463 57.0111C67.0023 56.7036 66.8522 56.4507 66.7607 56.1772C64.4718 49.3178 62.1963 42.4563 59.9054 35.5979C58.143 30.3278 56.3713 25.0608 54.5904 19.7969C54.5071 19.5501 54.3333 19.3352 54.2007 19.1059L58.9563 12.8501C59.1064 13.0496 59.3203 13.2275 59.3974 13.4526C60.717 17.3188 62.027 21.1881 63.3274 25.0605C64.5428 28.6778 65.7396 32.2993 66.9694 35.9105C67.0517 36.1521 67.3385 36.3228 67.5298 36.5285L67.5401 37.349L67.6727 56.3982Z" fill="#57AE47"/>
<path fill-rule="evenodd" clip-rule="evenodd" d="M67.5291 36.5286C67.3368 36.324 67.0509 36.1533 66.9687 35.9106C65.7399 32.2994 64.542 28.678 63.3266 25.0606C62.0259 21.1882 60.7159 17.3189 59.3967 13.4528C59.3196 13.2276 59.1057 13.0497 58.9556 12.8502C60.502 11.3356 62.0002 9.76652 63.6094 8.32184C65.0397 7.03859 66.1893 5.6628 66.2427 3.63408L66.3558 3.22998L66.763 4.25617C66.7527 4.7744 66.7065 5.29469 66.7404 5.81087C66.799 6.70853 66.944 7.60207 66.9841 8.49973C67.0591 10.1706 67.0951 11.8446 67.1291 13.5176C67.1836 16.2095 67.2329 18.9025 67.2658 21.5954L67.4067 34.504C67.417 35.1795 67.4879 35.8541 67.5291 36.5286Z" fill="#60B24F"/>
<path fill-rule="evenodd" clip-rule="evenodd" d="M65.6276 84.9762C65.8343 83.9438 66.1068 82.9197 66.2343 81.876C66.4893 79.7949 66.6651 77.7034 66.8739 75.6171L66.9263 75.6089L66.9777 75.6181C67.0319 78.2288 67.3995 80.8235 68.0728 83.3464C67.934 83.5294 67.7396 83.6909 67.6656 83.8965C67.0949 85.5068 66.5561 87.1304 65.9824 88.7396C65.9042 88.9596 65.6842 89.1313 65.531 89.3236L64.9438 87.3082L65.6276 84.9762Z" fill="#A9AA88"/>
<path fill-rule="evenodd" clip-rule="evenodd" d="M65.5308 89.3243C65.684 89.131 65.904 88.9603 65.9822 88.7403C66.5559 87.1311 67.0947 85.5075 67.6654 83.8973C67.7384 83.6916 67.9338 83.5302 68.0726 83.3472L69.0587 85.5106C68.8643 85.7862 68.5949 86.036 68.487 86.3435L66.5991 91.8878C66.521 92.1109 66.2567 92.2672 66.0778 92.4553L65.5308 89.3243Z" fill="#B6B598"/>
<path fill-rule="evenodd" clip-rule="evenodd" d="M66.0776 92.4545C66.2555 92.2663 66.5208 92.1101 66.599 91.8869L68.4868 86.3426C68.5937 86.0352 68.8642 85.7853 69.0585 85.5098L70.0127 86.3231C69.5521 86.7786 69.296 87.3051 69.4503 87.9703L69.1603 88.9194C69.0287 89.0819 68.8374 89.2238 68.7727 89.4099C68.1136 91.2977 67.4853 93.1959 66.8211 95.0827C66.7367 95.3213 66.5033 95.5094 66.3398 95.7212L66.0776 92.4545Z" fill="#C2C1A7"/>
<path fill-rule="evenodd" clip-rule="evenodd" d="M66.3391 95.7203C66.5036 95.5085 66.737 95.3203 66.8203 95.0817C67.4846 93.1949 68.1138 91.2968 68.7719 89.4089C68.8367 89.2228 69.028 89.0819 69.1596 88.9185L68.7596 93.2741C68.6526 93.3975 68.4984 93.5054 68.447 93.6484L67.1164 97.4611C67.0229 97.7212 66.844 97.9536 66.7041 98.1973C66.5797 98.0349 66.3576 97.8775 66.3473 97.7089C66.3083 97.0488 66.336 96.3835 66.3391 95.7203Z" fill="#CECDB7"/>
<path fill-rule="evenodd" clip-rule="evenodd" d="M66.7051 98.1981C66.8449 97.9544 67.0238 97.7221 67.1174 97.4619L68.4479 93.6492C68.4994 93.5052 68.6546 93.3983 68.7605 93.2749L68.7708 96.1334L67.8135 98.5878L66.7051 98.1981Z" fill="#DBDAC7"/>
<path fill-rule="evenodd" clip-rule="evenodd" d="M67.814 98.5877L68.7713 96.1333L68.9687 99.0371L67.814 98.5877Z" fill="#EBE9DC"/>
<path fill-rule="evenodd" clip-rule="evenodd" d="M69.4489 87.97C69.2957 87.3058 69.5507 86.7793 70.0113 86.3228L70.2766 86.5037L69.4489 87.97Z" fill="#CECDB7"/>
<path fill-rule="evenodd" clip-rule="evenodd" d="M66.9779 75.6188L66.9265 75.6095L66.874 75.6178L66.9964 75.1787L66.9779 75.6188Z" fill="#4FAA41"/>
</svg>
