<svg width="133" height="132" viewBox="0 0 133 132" fill="none" xmlns="http://www.w3.org/2000/svg">
<path d="M66.2677 58.4046C71.549 58.4046 75.8304 54.1233 75.8304 48.842C75.8304 43.5606 71.549 39.2793 66.2677 39.2793C60.9864 39.2793 56.7051 43.5606 56.7051 48.842C56.7051 54.1233 60.9864 58.4046 66.2677 58.4046Z" fill="#61DAFB"/>
<path d="M66.2673 84.0073C73.7734 91.3078 81.1768 95.6265 87.1406 95.6265C89.0943 95.6265 90.9451 95.2152 92.4875 94.2897C97.8343 91.205 99.788 83.4932 97.9371 72.491C97.6287 70.5373 97.2174 68.5837 96.7032 66.5272C98.7597 65.9102 100.611 65.2933 102.461 64.6764C112.847 60.6662 118.605 55.1137 118.605 49.0471C118.605 42.8776 112.847 37.3251 102.461 33.4178C100.611 32.698 98.7597 32.081 96.7032 31.5669C97.2174 29.5104 97.6287 27.5568 97.9371 25.6031C99.6852 14.3953 97.7315 6.58062 92.3846 3.4959C90.8423 2.57048 88.9914 2.15918 87.0378 2.15918C81.1768 2.15918 73.6706 6.4778 66.1644 13.7783C58.7611 6.4778 51.3577 2.15918 45.3939 2.15918C43.4403 2.15918 41.5894 2.57048 40.0471 3.4959C34.7002 6.58062 32.7465 14.2924 34.5974 25.2946C34.9058 27.2483 35.3171 29.202 35.8313 31.2585C33.7748 31.8754 31.9239 32.4923 30.0731 33.1093C19.6878 37.1194 13.9297 42.672 13.9297 48.7386C13.9297 54.908 19.6878 60.4606 30.0731 64.3679C31.9239 65.0876 33.7748 65.7046 35.8313 66.2187C35.3171 68.2752 34.9058 70.2289 34.5974 72.1825C32.8494 83.1847 34.803 90.9994 40.0471 93.9813C41.5894 94.9067 43.4403 95.318 45.3939 95.318C51.3577 95.5236 58.7611 91.205 66.2673 84.0073ZM60.5091 70.126C62.3599 70.2289 64.3136 70.2289 66.2673 70.2289C68.2209 70.2289 70.1746 70.2289 72.0254 70.126C70.1746 72.5938 68.2209 74.856 66.2673 77.0153C64.3136 74.856 62.3599 72.5938 60.5091 70.126ZM47.7589 59.5351C48.7871 61.2832 49.7125 62.9283 50.8436 64.5735C47.6561 64.1622 44.6742 63.6481 41.7951 63.0312C42.7205 60.2549 43.7487 57.3758 44.9826 54.4967C45.8052 56.1419 46.7306 57.89 47.7589 59.5351ZM41.7951 34.7545C44.6742 34.1375 47.6561 33.6234 50.8436 33.2121C49.8154 34.8573 48.7871 36.5025 47.7589 38.2505C46.7306 39.9985 45.8052 41.6437 44.9826 43.3917C43.6459 40.4098 42.6177 37.5307 41.7951 34.7545ZM47.4504 48.8414C48.7871 46.0652 50.2267 43.2889 51.8719 40.5126C53.4142 37.8392 55.1622 35.1658 56.9102 32.4923C59.995 32.2867 63.0797 32.1839 66.2673 32.1839C69.5576 32.1839 72.6424 32.2867 75.6243 32.4923C77.4751 35.1658 79.1203 37.8392 80.6627 40.5126C82.3078 43.2889 83.7474 46.0652 85.0841 48.8414C83.7474 51.6177 82.3078 54.3939 80.6627 57.1702C79.1203 59.8436 77.3723 62.517 75.6243 65.1905C72.5395 65.3961 69.4548 65.4989 66.2673 65.4989C62.9769 65.4989 59.8922 65.3961 56.9102 65.1905C55.0594 62.517 53.4142 59.8436 51.8719 57.1702C50.2267 54.3939 48.7871 51.6177 47.4504 48.8414ZM87.6547 43.2889L84.8785 38.1477C83.8502 36.3997 82.9248 34.7545 81.7937 33.1093C84.9813 33.5206 87.9632 34.0347 90.8423 34.6517C89.9168 37.5307 88.8886 40.4098 87.6547 43.2889ZM87.6547 54.3939C88.8886 57.273 89.9168 60.1521 90.8423 62.9283C87.9632 63.5453 84.9813 64.0594 81.7937 64.4707C82.822 62.8255 83.8502 61.1803 84.8785 59.4323C85.8039 57.8899 86.7293 56.1419 87.6547 54.3939ZM90.0197 90.074C89.1971 90.5881 88.1688 90.7937 87.0378 90.7937C81.9994 90.7937 75.7271 86.6808 69.5576 80.5113C72.5395 77.3237 75.4186 73.7249 78.2977 69.7147C83.1304 69.3034 87.7575 68.5837 92.0762 67.5554C92.5903 69.4063 92.8987 71.2571 93.2072 73.1079C94.6468 81.848 93.5157 88.1203 90.0197 90.074ZM95.3665 35.8856C106.883 39.1759 113.772 44.2143 113.772 48.8414C113.772 52.8516 109.042 56.8617 100.713 60.0493C99.0682 60.6662 97.2174 61.2831 95.3665 61.7973C94.0298 57.5815 92.3846 53.2629 90.3281 48.8414C92.3846 44.42 94.1326 40.1013 95.3665 35.8856ZM87.1406 6.8891C88.2717 6.8891 89.1971 7.09475 90.1225 7.60887C93.5157 9.56253 94.7496 15.732 93.31 24.5749C93.0016 26.3229 92.5903 28.1737 92.179 30.1274C87.8604 29.202 83.2333 28.4822 78.4005 27.9681C75.6243 23.9579 72.6424 20.3591 69.6605 17.1715C75.8299 11.1049 82.1022 6.8891 87.1406 6.8891ZM72.0254 27.5568C70.1746 27.454 68.2209 27.454 66.2673 27.454C64.3136 27.454 62.3599 27.454 60.5091 27.5568C62.3599 25.089 64.3136 22.8269 66.2673 20.6676C68.2209 22.8269 70.1746 25.1918 72.0254 27.5568ZM42.5148 7.60887C43.3374 7.09475 44.3657 6.8891 45.4967 6.8891C50.5351 6.8891 56.8074 11.0021 62.9769 17.1715C59.995 20.3591 57.1159 23.9579 54.2368 27.9681C49.4041 28.3794 44.777 29.0991 40.4584 30.1274C39.9442 28.2765 39.6358 26.4257 39.3273 24.5749C37.8877 15.8348 39.0188 9.66535 42.5148 7.60887ZM37.168 61.7973C25.6517 58.5069 18.7624 53.4685 18.7624 48.8414C18.7624 44.8313 23.4923 40.8211 31.8211 37.6336C33.4663 37.0166 35.3171 36.3997 37.168 35.8856C38.5047 40.1013 40.1499 44.42 42.2064 48.8414C40.1499 53.2629 38.4019 57.6843 37.168 61.7973ZM39.3273 73.1079C39.6358 71.3599 40.0471 69.5091 40.4584 67.5554C44.777 68.4808 49.4041 69.2006 54.2368 69.7147C57.0131 73.7249 59.995 77.3237 62.9769 80.5113C56.8074 86.5779 50.5351 90.7937 45.4967 90.7937C44.3657 90.7937 43.4403 90.5881 42.5148 90.074C39.0188 88.1203 37.8877 81.848 39.3273 73.1079ZM35.0087 115.472C37.2708 112.695 37.3736 109.611 36.1397 106.526C34.9058 103.441 32.3352 102.002 29.1477 101.899C25.3432 101.796 21.4359 101.899 17.6314 101.899H16.9116V128.53H19.9963V118.453H24.8291C25.446 118.453 25.9601 118.659 26.2686 119.173L32.4381 128.736C32.5409 128.942 32.8494 129.25 33.055 129.25H37.0652C34.5974 125.446 32.2324 121.847 29.7646 118.145C31.9239 117.837 33.7748 117.117 35.0087 115.472ZM19.9963 115.266V105.086H21.1274C23.4923 105.086 25.9601 104.983 28.3251 105.189C31.1013 105.292 33.055 107.451 33.055 110.228C33.055 113.004 30.7929 115.163 28.0166 115.266C25.5488 115.369 23.081 115.266 19.9963 115.266ZM59.7893 116.603C58.1441 109.405 51.5634 107.554 46.525 109.816C42.6177 111.564 40.8697 114.957 40.7668 119.173C40.664 122.361 41.5894 125.24 44.0572 127.399C46.8335 129.867 50.2267 130.175 53.7227 129.558C55.6763 129.147 57.4244 128.222 58.7611 126.782C58.247 126.062 57.7328 125.343 57.2187 124.726C54.3396 127.194 51.1521 128.016 47.6561 126.371C45.3939 125.24 44.2629 122.464 44.0572 120.407H59.995V119.07C60.0978 118.145 59.995 117.322 59.7893 116.603ZM44.2629 118.248C43.9544 115.163 47.0391 111.873 50.4323 111.873C54.3396 111.77 56.8074 114.135 56.9102 118.248H44.2629ZM75.8299 109.302C74.2876 108.994 72.6424 108.891 71.1 108.994C68.6322 109.199 66.4729 110.33 64.7249 112.181C65.239 112.901 65.6503 113.621 66.2673 114.443C66.4729 114.238 66.6786 114.032 66.8842 113.929C68.5294 112.387 70.4831 111.564 72.848 111.77C74.6988 111.873 76.4469 112.49 76.961 114.34C77.3723 115.78 77.2695 117.322 77.3723 118.865C77.0638 118.865 76.961 118.762 76.8582 118.659C74.3904 116.603 71.6141 116.191 68.6322 116.911C65.856 117.631 64.1079 119.79 63.9023 122.566C63.6966 125.754 65.1362 128.119 67.9124 129.25C69.6605 129.97 71.6141 129.97 73.465 129.558C74.9045 129.25 75.5214 128.427 77.5779 127.296V128.633H80.457C80.457 124.52 80.5598 119.482 80.457 114.752C80.457 111.77 78.709 109.919 75.8299 109.302ZM77.2695 122.258C77.1666 122.566 77.2695 122.875 77.2695 123.183C77.2695 125.343 76.7553 126.062 74.6988 126.885C73.2593 127.399 71.7169 127.605 70.1746 127.091C68.4266 126.577 67.1927 125.034 67.1927 123.286C67.0899 121.538 68.2209 119.79 69.9689 119.276C72.3339 118.453 74.4932 118.968 76.4469 120.407C77.0638 120.921 77.4751 121.435 77.2695 122.258ZM93.31 112.078C95.9835 111.256 98.4513 111.77 100.302 114.032L100.611 114.238C101.33 113.621 101.947 113.004 102.77 112.284C102.461 111.976 102.359 111.77 102.153 111.461C99.171 108.274 93.31 107.863 89.7112 110.433C84.6728 114.135 84.7756 121.333 87.2434 125.137C89.6084 128.736 93.0016 129.97 97.0117 129.456C99.3767 129.147 101.33 128.016 102.873 126.062C102.153 125.446 101.433 124.829 100.713 124.109C100.508 124.314 100.405 124.417 100.302 124.623C97.5258 127.708 92.8987 127.399 90.431 124.109C88.9914 122.155 88.6829 119.893 89.0942 117.631C89.2999 115.06 90.6366 113.004 93.31 112.078ZM114.697 126.062C114.492 126.165 114.389 126.268 114.389 126.268C113.566 126.885 112.744 126.988 111.818 126.679C110.893 126.268 110.79 125.446 110.687 124.623V112.901C110.687 112.695 110.687 113.107 110.79 112.078H114.697V108.994H110.585V103.852H107.5V109.405H104.826C104.621 109.405 104.312 109.611 104.312 109.816C104.209 110.536 104.312 111.05 104.312 112.078H107.603V125.24C107.603 126.885 108.014 128.325 109.453 129.147C110.996 130.073 113.978 129.867 115.314 128.736C115.52 128.633 115.623 128.222 115.623 128.119C115.314 127.502 115.006 126.782 114.697 126.062Z" fill="#61DAFB"/>
</svg>
