<svg width="133" height="132" viewBox="0 0 133 132" fill="none" xmlns="http://www.w3.org/2000/svg">
<g clip-path="url(#clip0_238_1328)">
<mask id="mask0_238_1328" style="mask-type:alpha" maskUnits="userSpaceOnUse" x="0" y="0" width="133" height="132">
<path fill-rule="evenodd" clip-rule="evenodd" d="M94.0208 130.716C95.0682 131.124 96.1883 131.313 97.3116 131.269C98.4349 131.226 99.5372 130.952 100.55 130.465L127.647 117.426C129.043 116.754 130.22 115.702 131.044 114.391C131.868 113.079 132.306 111.562 132.305 110.013V21.6019C132.306 20.053 131.869 18.5354 131.045 17.2239C130.221 15.9124 129.043 14.8601 127.647 14.1883L100.55 1.15119C99.019 0.41446 97.2967 0.171894 95.6216 0.457062C93.9465 0.74223 92.4015 1.54103 91.2004 2.74291L39.3255 50.0688L16.7309 32.9167C15.7115 32.1432 14.4536 31.7508 13.1752 31.8075C11.8968 31.8642 10.6785 32.3665 9.73165 33.2272L2.48459 39.8193C1.91983 40.333 1.4685 40.9589 1.15947 41.6569C0.850443 42.355 0.690524 43.1099 0.689943 43.8733C0.689362 44.6367 0.848133 45.3919 1.1561 46.0904C1.46406 46.789 1.91444 47.4155 2.47842 47.9301L22.0736 65.8071L2.47945 83.6852C1.91578 84.1998 1.46567 84.8263 1.15789 85.5248C0.850121 86.2232 0.691453 86.9782 0.692034 87.7414C0.692614 88.5047 0.85243 89.2594 1.16127 89.9573C1.4701 90.6553 1.92117 91.2812 2.48562 91.7949L9.73268 98.387C10.6795 99.2479 11.8976 99.7503 13.176 99.8072C14.4544 99.8641 15.7124 99.4719 16.7319 98.6985L39.3265 81.5475L91.2014 128.872C92.0043 129.675 92.9635 130.303 94.0208 130.716ZM99.4212 35.9295L60.0611 65.8071L99.4222 95.6858L99.4212 35.9295Z" fill="white"/>
</mask>
<g mask="url(#mask0_238_1328)">
<path d="M127.649 14.2102L100.53 1.15155C98.998 0.413876 97.2748 0.170797 95.5989 0.455985C93.9229 0.741174 92.3772 1.54051 91.1757 2.74327L2.39927 83.6855C1.83517 84.1999 1.38468 84.8263 1.07663 85.5248C0.768588 86.2233 0.609772 86.9784 0.610353 87.7418C0.610934 88.5052 0.770899 89.26 1.08001 89.958C1.38912 90.656 1.84056 91.2818 2.40544 91.7953L9.65661 98.3873C10.6037 99.2493 11.8227 99.7524 13.102 99.8093C14.3813 99.8662 15.6401 99.4733 16.66 98.6989L123.567 17.5962C127.154 14.8755 132.305 17.4338 132.305 21.9354V21.6208C132.305 20.0723 131.868 18.5553 131.045 17.2442C130.221 15.933 129.044 14.8821 127.649 14.2102Z" fill="#0065A9"/>
<g filter="url(#filter0_d_238_1328)">
<path d="M127.649 117.405L100.53 130.462C98.9982 131.2 97.2752 131.443 95.5992 131.158C93.9233 130.874 92.3774 130.075 91.1757 128.872L2.39927 47.929C1.83517 47.4147 1.38468 46.7882 1.07663 46.0897C0.768588 45.3912 0.609772 44.6361 0.610353 43.8728C0.610934 43.1094 0.770899 42.3545 1.08001 41.6565C1.38912 40.9585 1.84056 40.3327 2.40544 39.8193L9.65661 33.2272C10.6037 32.3652 11.8227 31.8621 13.102 31.8052C14.3813 31.7483 15.6401 32.1412 16.66 32.9156L123.567 114.017C127.154 116.739 132.305 114.181 132.305 109.679V109.994C132.305 111.542 131.868 113.059 131.045 114.37C130.221 115.682 129.044 116.733 127.649 117.405Z" fill="#007ACC"/>
</g>
<g filter="url(#filter1_d_238_1328)">
<path d="M100.53 130.465C98.998 131.202 97.275 131.444 95.5992 131.159C93.9234 130.873 92.3775 130.074 91.1753 128.873C94.2107 131.908 99.4012 129.758 99.4012 125.465V6.14872C99.4012 1.85581 94.2107 -0.294248 91.1753 2.74215C92.3775 1.54033 93.9234 0.741572 95.5992 0.456253C97.275 0.170934 98.998 0.413141 100.53 1.1494L127.644 14.1896C129.04 14.861 130.218 15.913 131.043 17.2246C131.868 18.5362 132.305 20.054 132.305 21.6032V110.014C132.305 111.563 131.868 113.081 131.043 114.392C130.218 115.704 129.04 116.756 127.644 117.427L100.53 130.465Z" fill="#1F9CF0"/>
</g>
<path opacity="0.25" fill-rule="evenodd" clip-rule="evenodd" d="M93.9418 130.716C94.989 131.124 96.1089 131.312 97.232 131.269C98.3551 131.226 99.4573 130.952 100.47 130.465L127.567 117.426C128.963 116.754 130.141 115.702 130.965 114.39C131.789 113.079 132.226 111.561 132.225 110.012V21.6019C132.226 20.053 131.789 18.5354 130.965 17.2239C130.141 15.9124 128.963 14.8601 127.567 14.1883L100.47 1.15119C98.9389 0.41446 97.2166 0.171894 95.5415 0.457062C93.8664 0.74223 92.3214 1.54103 91.1203 2.74291L39.2454 50.0688L16.6508 32.9177C15.6314 32.1442 14.3735 31.7518 13.0951 31.8085C11.8167 31.8652 10.5985 32.3675 9.65156 33.2283L2.40451 39.8203C1.83988 40.3341 1.38868 40.96 1.07974 41.6581C0.770803 42.3561 0.610934 43.111 0.610353 43.8743C0.609772 44.6377 0.768494 45.3928 1.07637 46.0914C1.38424 46.7899 1.83449 47.4165 2.39834 47.9311L21.9936 65.8071L2.39936 83.6841C1.83538 84.1987 1.385 84.8252 1.07704 85.5238C0.769073 86.2223 0.610302 86.9775 0.610883 87.7409C0.611464 88.5043 0.771383 89.2592 1.08041 89.9573C1.38944 90.6554 1.84077 91.2813 2.40553 91.7949L9.65259 98.387C10.5994 99.2479 11.8175 99.7503 13.0959 99.8072C14.3743 99.8641 15.6323 99.4719 16.6518 98.6985L39.2475 81.5464L91.1223 128.872C91.9249 129.675 92.8848 130.303 93.9418 130.716ZM99.3421 35.9284L59.981 65.8071L99.3421 95.6848V35.9284Z" fill="url(#paint0_linear_238_1328)"/>
</g>
</g>
<defs>
<filter id="filter0_d_238_1328" x="-7.95903" y="23.2304" width="148.834" height="116.613" filterUnits="userSpaceOnUse" color-interpolation-filters="sRGB">
<feFlood flood-opacity="0" result="BackgroundImageFix"/>
<feColorMatrix in="SourceAlpha" type="matrix" values="0 0 0 0 0 0 0 0 0 0 0 0 0 0 0 0 0 0 127 0" result="hardAlpha"/>
<feOffset/>
<feGaussianBlur stdDeviation="4.28469"/>
<feColorMatrix type="matrix" values="0 0 0 0 0 0 0 0 0 0 0 0 0 0 0 0 0 0 0.25 0"/>
<feBlend mode="overlay" in2="BackgroundImageFix" result="effect1_dropShadow_238_1328"/>
<feBlend mode="normal" in="SourceGraphic" in2="effect1_dropShadow_238_1328" result="shape"/>
</filter>
<filter id="filter1_d_238_1328" x="82.6059" y="-8.22953" width="58.2686" height="148.074" filterUnits="userSpaceOnUse" color-interpolation-filters="sRGB">
<feFlood flood-opacity="0" result="BackgroundImageFix"/>
<feColorMatrix in="SourceAlpha" type="matrix" values="0 0 0 0 0 0 0 0 0 0 0 0 0 0 0 0 0 0 127 0" result="hardAlpha"/>
<feOffset/>
<feGaussianBlur stdDeviation="4.28469"/>
<feColorMatrix type="matrix" values="0 0 0 0 0 0 0 0 0 0 0 0 0 0 0 0 0 0 0.25 0"/>
<feBlend mode="overlay" in2="BackgroundImageFix" result="effect1_dropShadow_238_1328"/>
<feBlend mode="normal" in="SourceGraphic" in2="effect1_dropShadow_238_1328" result="shape"/>
</filter>
<linearGradient id="paint0_linear_238_1328" x1="66.4178" y1="0.338878" x2="66.4178" y2="131.275" gradientUnits="userSpaceOnUse">
<stop stop-color="white"/>
<stop offset="1" stop-color="white" stop-opacity="0"/>
</linearGradient>
<clipPath id="clip0_238_1328">
<rect width="131.615" height="131.615" fill="white" transform="translate(0.69043)"/>
</clipPath>
</defs>
</svg>
